# xmcd
#
# Track frame offsets:
#	150
#	9701
#	19879
#	32608
#	42061
#	51170
#	62665
#	73392
#	87111
#	96971
#
# Disc length: 1447 seconds
#
# Revision: 0
# Processed by: cddbd v1.5.1PL0 Copyright (c) Steve Scherf et al.
# Submitted via: dBpowerAMP V4.0
#
DISCID=8005a50a
DTITLE=George Jones - Heartaches and Hangovers
DYEAR=2002
DGENRE=Country
TTITLE0=The Race Is On
TTITLE1=Heartaches and Hangovers
TTITLE2=Dont Be Angry
TTITLE3=Living On Easy Street
TTITLE4=The Love Bug
TTITLE5=Talk Back Trembling Lips
TTITLE6=Ragged But Right
TTITLE7=Come Sundown
TTITLE8=Honkeytonk Downstairs
TTITLE9=We Must Have Been Out Of Our Minds
EXTD=
EXTT0=
EXTT1=
EXTT2=
EXTT3=
EXTT4=
EXTT5=
EXTT6=
EXTT7=
EXTT8=
EXTT9=
PLAYORDER=
